<mxfile host="app.diagrams.net" agent="Mozilla/5.0 (X11; Linux x86_64) AppleWebKit/537.36 (KHTML, like Gecko) Chrome/137.0.0.0 Safari/537.36" version="27.1.6">
  <diagram id="C5RBs43oDa-KdzZeNtuy" name="Page-1">
    <mxGraphModel dx="1407" dy="995" grid="1" gridSize="10" guides="1" tooltips="1" connect="1" arrows="1" fold="1" page="0" pageScale="1" pageWidth="827" pageHeight="1169" math="0" shadow="0">
      <root>
        <mxCell id="WIyWlLk6GJQsqaUBKTNV-0" />
        <mxCell id="WIyWlLk6GJQsqaUBKTNV-1" parent="WIyWlLk6GJQsqaUBKTNV-0" />
        <mxCell id="d2zdAlvCtJnc1D3oAFV--0" value="Server" style="swimlane;fontStyle=1;align=center;verticalAlign=top;childLayout=stackLayout;horizontal=1;startSize=26;horizontalStack=0;resizeParent=1;resizeParentMax=0;resizeLast=0;collapsible=1;marginBottom=0;whiteSpace=wrap;html=1;" parent="WIyWlLk6GJQsqaUBKTNV-1" vertex="1">
          <mxGeometry x="60" y="40" width="680" height="490" as="geometry" />
        </mxCell>
        <mxCell id="d2zdAlvCtJnc1D3oAFV--1" value="- map&amp;lt;int id. Player&amp;gt; registeredplayers&lt;div&gt;- map&amp;lt;int product_id, Product&amp;gt; products&lt;/div&gt;&lt;div&gt;- set &amp;lt;int&amp;gt; aktive_session_ids&lt;/div&gt;&lt;div&gt;- lastsessionid : int&amp;nbsp;&lt;/div&gt;&lt;div&gt;- messages&amp;nbsp; : std:: list &amp;lt;std::strings&amp;gt;&lt;/div&gt;" style="text;strokeColor=none;fillColor=none;align=left;verticalAlign=top;spacingLeft=4;spacingRight=4;overflow=hidden;rotatable=0;points=[[0,0.5],[1,0.5]];portConstraint=eastwest;whiteSpace=wrap;html=1;" parent="d2zdAlvCtJnc1D3oAFV--0" vertex="1">
          <mxGeometry y="26" width="680" height="124" as="geometry" />
        </mxCell>
        <mxCell id="d2zdAlvCtJnc1D3oAFV--2" value="" style="line;strokeWidth=1;fillColor=none;align=left;verticalAlign=middle;spacingTop=-1;spacingLeft=3;spacingRight=3;rotatable=0;labelPosition=right;points=[];portConstraint=eastwest;strokeColor=inherit;" parent="d2zdAlvCtJnc1D3oAFV--0" vertex="1">
          <mxGeometry y="150" width="680" height="8" as="geometry" />
        </mxCell>
        <mxCell id="d2zdAlvCtJnc1D3oAFV--3" value="&lt;div&gt;+ Server() (Contains 10 initial Products)&amp;nbsp;&lt;/div&gt;&lt;div&gt;&lt;br&gt;&lt;/div&gt;&lt;div&gt;+ int signin (username, password)&amp;nbsp;&lt;/div&gt;&lt;div&gt;+ bool register (username, password)&lt;/div&gt;&lt;div&gt;+ void signout (sessionid)&lt;/div&gt;+ map &amp;lt; int product_id, int howmanyowned &amp;gt; list_of_own_inventory (int session_id)&lt;div&gt;+ float wallet (int session_id) (returns amount of money owned by trader)&lt;/div&gt;&lt;div&gt;+ bool buy (int product_id, int session_id) (bool returns if buy was ok)&amp;nbsp;&lt;/div&gt;&lt;div&gt;+ bool sell (int product_id, int session_id)&amp;nbsp;&lt;/div&gt;&lt;div&gt;&lt;br&gt;&lt;/div&gt;&lt;div&gt;+ list&amp;lt;Product&amp;gt; products_list(int session_id&amp;gt;&amp;nbsp;&lt;/div&gt;&lt;div&gt;+ float product_price (int product_id, int session_id&amp;gt;&amp;nbsp;&lt;/div&gt;&lt;div&gt;&lt;br&gt;&lt;/div&gt;&lt;div&gt;+ getmessages (session_id) : list&amp;nbsp;&lt;/div&gt;&lt;div&gt;+ sendmessage(session_id, std::string message) : void&amp;nbsp;&lt;/div&gt;&lt;div&gt;+ getuserbysessionid(int session_id) : User&lt;/div&gt;&lt;div&gt;+ checkifsessionidisvalid (session_id) : bool&lt;/div&gt;&lt;div&gt;+ getProductbyID( int product id ) : &amp;amp;Product&lt;/div&gt;&lt;div&gt;&lt;br&gt;&lt;/div&gt;" style="text;strokeColor=none;fillColor=none;align=left;verticalAlign=top;spacingLeft=4;spacingRight=4;overflow=hidden;rotatable=0;points=[[0,0.5],[1,0.5]];portConstraint=eastwest;whiteSpace=wrap;html=1;" parent="d2zdAlvCtJnc1D3oAFV--0" vertex="1">
          <mxGeometry y="158" width="680" height="332" as="geometry" />
        </mxCell>
        <mxCell id="d2zdAlvCtJnc1D3oAFV--8" value="Product" style="swimlane;fontStyle=1;align=center;verticalAlign=top;childLayout=stackLayout;horizontal=1;startSize=26;horizontalStack=0;resizeParent=1;resizeParentMax=0;resizeLast=0;collapsible=1;marginBottom=0;whiteSpace=wrap;html=1;" parent="WIyWlLk6GJQsqaUBKTNV-1" vertex="1">
          <mxGeometry x="-310" y="470" width="330" height="300" as="geometry" />
        </mxCell>
        <mxCell id="d2zdAlvCtJnc1D3oAFV--9" value="- int product_id&amp;nbsp;&lt;div&gt;- string product_name&lt;/div&gt;&lt;div&gt;- float current_price&amp;nbsp;&lt;/div&gt;&lt;div&gt;- map &amp;lt;float (timestamp), float (price)&amp;gt; price_history&lt;/div&gt;&lt;div&gt;-&amp;nbsp;&lt;br&gt;&lt;div&gt;&amp;nbsp;&lt;div&gt;&lt;br&gt;&lt;/div&gt;&lt;/div&gt;&lt;/div&gt;" style="text;strokeColor=none;fillColor=none;align=left;verticalAlign=top;spacingLeft=4;spacingRight=4;overflow=hidden;rotatable=0;points=[[0,0.5],[1,0.5]];portConstraint=eastwest;whiteSpace=wrap;html=1;" parent="d2zdAlvCtJnc1D3oAFV--8" vertex="1">
          <mxGeometry y="26" width="330" height="134" as="geometry" />
        </mxCell>
        <mxCell id="d2zdAlvCtJnc1D3oAFV--10" value="" style="line;strokeWidth=1;fillColor=none;align=left;verticalAlign=middle;spacingTop=-1;spacingLeft=3;spacingRight=3;rotatable=0;labelPosition=right;points=[];portConstraint=eastwest;strokeColor=inherit;" parent="d2zdAlvCtJnc1D3oAFV--8" vertex="1">
          <mxGeometry y="160" width="330" height="8" as="geometry" />
        </mxCell>
        <mxCell id="d2zdAlvCtJnc1D3oAFV--11" value="&lt;div&gt;+ Product(product_id, product_name, start_price)&lt;/div&gt;+&amp;nbsp; getproductid() : int&amp;nbsp;&lt;div&gt;+ setproductid(int ID) : void&amp;nbsp;&lt;/div&gt;&lt;div&gt;+ getproductname() : string&amp;nbsp;&lt;/div&gt;&lt;div&gt;+ setproductname (string name) : void&lt;/div&gt;&lt;div&gt;+ getcurrentprice () : float&lt;/div&gt;&lt;div&gt;+ setcurrentprice (float price) : void&lt;/div&gt;&lt;div&gt;+ getpricehistory () : map&lt;/div&gt;" style="text;strokeColor=none;fillColor=none;align=left;verticalAlign=top;spacingLeft=4;spacingRight=4;overflow=hidden;rotatable=0;points=[[0,0.5],[1,0.5]];portConstraint=eastwest;whiteSpace=wrap;html=1;" parent="d2zdAlvCtJnc1D3oAFV--8" vertex="1">
          <mxGeometry y="168" width="330" height="132" as="geometry" />
        </mxCell>
        <mxCell id="d2zdAlvCtJnc1D3oAFV--12" value="User" style="swimlane;fontStyle=1;align=center;verticalAlign=top;childLayout=stackLayout;horizontal=1;startSize=26;horizontalStack=0;resizeParent=1;resizeParentMax=0;resizeLast=0;collapsible=1;marginBottom=0;whiteSpace=wrap;html=1;" parent="WIyWlLk6GJQsqaUBKTNV-1" vertex="1">
          <mxGeometry x="-280" y="-30" width="280" height="390" as="geometry" />
        </mxCell>
        <mxCell id="d2zdAlvCtJnc1D3oAFV--13" value="&lt;div&gt;- userid : int&lt;/div&gt;- username&amp;nbsp; : string&amp;nbsp;&lt;div&gt;- password : string&amp;nbsp;&lt;/div&gt;&lt;div&gt;- aktive_session_id : int&lt;/div&gt;&lt;div&gt;- wallet : float&amp;nbsp;&lt;/div&gt;&lt;div&gt;- map &amp;lt; int (product_id), int number&amp;gt; stock&lt;br&gt;&lt;div&gt;&lt;br&gt;&lt;/div&gt;&lt;/div&gt;" style="text;strokeColor=none;fillColor=none;align=left;verticalAlign=top;spacingLeft=4;spacingRight=4;overflow=hidden;rotatable=0;points=[[0,0.5],[1,0.5]];portConstraint=eastwest;whiteSpace=wrap;html=1;" parent="d2zdAlvCtJnc1D3oAFV--12" vertex="1">
          <mxGeometry y="26" width="280" height="104" as="geometry" />
        </mxCell>
        <mxCell id="d2zdAlvCtJnc1D3oAFV--14" value="" style="line;strokeWidth=1;fillColor=none;align=left;verticalAlign=middle;spacingTop=-1;spacingLeft=3;spacingRight=3;rotatable=0;labelPosition=right;points=[];portConstraint=eastwest;strokeColor=inherit;" parent="d2zdAlvCtJnc1D3oAFV--12" vertex="1">
          <mxGeometry y="130" width="280" height="58" as="geometry" />
        </mxCell>
        <mxCell id="d2zdAlvCtJnc1D3oAFV--15" value="+ getusername () : string&amp;nbsp;&lt;div&gt;+ setusername (string) : void&amp;nbsp;&lt;/div&gt;&lt;div&gt;+ getpassword () : string&amp;nbsp;&lt;/div&gt;&lt;div&gt;+ setpassword (string) : void&amp;nbsp;&lt;/div&gt;&lt;div&gt;+ getaktivesessionid () : int&amp;nbsp;&lt;/div&gt;&lt;div&gt;+ setaktivesessionid (int) : void&lt;/div&gt;&lt;div&gt;+ getwallet () : float&lt;/div&gt;&lt;div&gt;+ setwallet () : float&amp;nbsp;&lt;/div&gt;&lt;div&gt;+ getstock () : map &amp;lt;int, int&amp;gt;&amp;nbsp;&lt;/div&gt;&lt;div&gt;&lt;span style=&quot;background-color: transparent; color: light-dark(rgb(0, 0, 0), rgb(255, 255, 255));&quot;&gt;+ setstock (map&amp;lt;int, int&amp;gt;) : void&amp;nbsp;&amp;nbsp;&lt;/span&gt;&lt;/div&gt;" style="text;strokeColor=none;fillColor=none;align=left;verticalAlign=top;spacingLeft=4;spacingRight=4;overflow=hidden;rotatable=0;points=[[0,0.5],[1,0.5]];portConstraint=eastwest;whiteSpace=wrap;html=1;" parent="d2zdAlvCtJnc1D3oAFV--12" vertex="1">
          <mxGeometry y="188" width="280" height="202" as="geometry" />
        </mxCell>
        <mxCell id="0Tk9jkb5EU3V5Fjlx3sS-1" value="&lt;div style=&quot;color: rgb(204, 204, 204); background-color: rgb(31, 31, 31); font-family: &amp;quot;Droid Sans Mono&amp;quot;, &amp;quot;monospace&amp;quot;, monospace; font-size: 14px; line-height: 19px; white-space: pre;&quot;&gt;&lt;div&gt;        &lt;span style=&quot;color: #4ec9b0;&quot;&gt;Product&lt;/span&gt;(&lt;span style=&quot;color: #b5cea8;&quot;&gt;1&lt;/span&gt;, &lt;span style=&quot;color: #ce9178;&quot;&gt;&quot;Pepper&quot;&lt;/span&gt;, &lt;span style=&quot;color: #b5cea8;&quot;&gt;0.05f&lt;/span&gt;),&lt;/div&gt;&lt;div&gt;        &lt;span style=&quot;color: #4ec9b0;&quot;&gt;Product&lt;/span&gt;(&lt;span style=&quot;color: #b5cea8;&quot;&gt;2&lt;/span&gt;, &lt;span style=&quot;color: #ce9178;&quot;&gt;&quot;Bread&quot;&lt;/span&gt;, &lt;span style=&quot;color: #b5cea8;&quot;&gt;1.5f&lt;/span&gt;),&lt;/div&gt;&lt;div&gt;        &lt;span style=&quot;color: #4ec9b0;&quot;&gt;Product&lt;/span&gt;(&lt;span style=&quot;color: #b5cea8;&quot;&gt;3&lt;/span&gt;, &lt;span style=&quot;color: #ce9178;&quot;&gt;&quot;Cheese&quot;&lt;/span&gt;, &lt;span style=&quot;color: #b5cea8;&quot;&gt;3.0f&lt;/span&gt;),&lt;/div&gt;&lt;div&gt;        &lt;span style=&quot;color: #4ec9b0;&quot;&gt;Product&lt;/span&gt;(&lt;span style=&quot;color: #b5cea8;&quot;&gt;4&lt;/span&gt;, &lt;span style=&quot;color: #ce9178;&quot;&gt;&quot;Whool&quot;&lt;/span&gt;, &lt;span style=&quot;color: #b5cea8;&quot;&gt;25.0f&lt;/span&gt;),&lt;/div&gt;&lt;div&gt;        &lt;span style=&quot;color: #4ec9b0;&quot;&gt;Product&lt;/span&gt;(&lt;span style=&quot;color: #b5cea8;&quot;&gt;5&lt;/span&gt;, &lt;span style=&quot;color: #ce9178;&quot;&gt;&quot;Pig&quot;&lt;/span&gt;, &lt;span style=&quot;color: #b5cea8;&quot;&gt;150.0f&lt;/span&gt;),&lt;/div&gt;&lt;div&gt;        &lt;span style=&quot;color: #4ec9b0;&quot;&gt;Product&lt;/span&gt;(&lt;span style=&quot;color: #b5cea8;&quot;&gt;6&lt;/span&gt;, &lt;span style=&quot;color: #ce9178;&quot;&gt;&quot;Knive&quot;&lt;/span&gt;, &lt;span style=&quot;color: #b5cea8;&quot;&gt;20.0f&lt;/span&gt;),&lt;/div&gt;&lt;div&gt;        &lt;span style=&quot;color: #4ec9b0;&quot;&gt;Product&lt;/span&gt;(&lt;span style=&quot;color: #b5cea8;&quot;&gt;7&lt;/span&gt;, &lt;span style=&quot;color: #ce9178;&quot;&gt;&quot;Hammer&quot;&lt;/span&gt;, &lt;span style=&quot;color: #b5cea8;&quot;&gt;35.0f&lt;/span&gt;),&lt;/div&gt;&lt;div&gt;        &lt;span style=&quot;color: #4ec9b0;&quot;&gt;Product&lt;/span&gt;(&lt;span style=&quot;color: #b5cea8;&quot;&gt;8&lt;/span&gt;, &lt;span style=&quot;color: #ce9178;&quot;&gt;&quot;Shoe&quot;&lt;/span&gt;, &lt;span style=&quot;color: #b5cea8;&quot;&gt;50.0f&lt;/span&gt;),&lt;/div&gt;&lt;div&gt;        &lt;span style=&quot;color: #4ec9b0;&quot;&gt;Product&lt;/span&gt;(&lt;span style=&quot;color: #b5cea8;&quot;&gt;9&lt;/span&gt;, &lt;span style=&quot;color: #ce9178;&quot;&gt;&quot;Fish&quot;&lt;/span&gt;, &lt;span style=&quot;color: #b5cea8;&quot;&gt;4.5f&lt;/span&gt;),&lt;/div&gt;&lt;div&gt;        &lt;span style=&quot;color: #4ec9b0;&quot;&gt;Product&lt;/span&gt;(&lt;span style=&quot;color: #b5cea8;&quot;&gt;10&lt;/span&gt;, &lt;span style=&quot;color: #ce9178;&quot;&gt;&quot;Candles&quot;&lt;/span&gt;, &lt;span style=&quot;color: #b5cea8;&quot;&gt;9.5f&lt;/span&gt;)};&lt;/div&gt;&lt;/div&gt;" style="text;html=1;align=center;verticalAlign=middle;whiteSpace=wrap;rounded=0;" parent="WIyWlLk6GJQsqaUBKTNV-1" vertex="1">
          <mxGeometry x="-150" y="880" width="60" height="30" as="geometry" />
        </mxCell>
      </root>
    </mxGraphModel>
  </diagram>
</mxfile>
